<svg width="25" height="26" viewBox="0 0 25 26" fill="none" xmlns="http://www.w3.org/2000/svg">
<mask id="mask0_191_246" style="mask-type:luminance" maskUnits="userSpaceOnUse" x="0" y="0" width="25" height="26">
<path d="M0 0H25V25.3023H0V0Z" fill="white"/>
<path fill-rule="evenodd" clip-rule="evenodd" d="M4.32691 8.75858C4.32691 8.37143 4.47886 8.00013 4.74935 7.72638C5.01983 7.45262 5.38669 7.29883 5.76921 7.29883H19.2308C19.6133 7.29883 19.9801 7.45262 20.2506 7.72638C20.5211 8.00013 20.6731 8.37143 20.6731 8.75858V11.3277C20.6731 11.5895 20.5183 11.8241 20.2808 11.9243C20.1391 11.9841 20.0182 12.0851 19.9331 12.2143C19.8481 12.3436 19.8027 12.4954 19.8027 12.6508C19.8027 12.8061 19.8481 12.9579 19.9331 13.0872C20.0182 13.2165 20.1391 13.3174 20.2808 13.3772C20.3973 13.426 20.4969 13.5087 20.5667 13.615C20.6366 13.7212 20.6736 13.8461 20.6731 13.9738V16.5439C20.6731 16.9311 20.5211 17.3023 20.2506 17.5761C19.9801 17.8499 19.6133 18.0037 19.2308 18.0037H5.76921C5.38669 18.0037 5.01983 17.8499 4.74935 17.5761C4.47886 17.3023 4.32691 16.9311 4.32691 16.5439V13.9747C4.32691 13.713 4.48171 13.4784 4.71921 13.3772C4.86082 13.3174 4.98176 13.2165 5.06683 13.0872C5.1519 12.9579 5.19729 12.8061 5.19729 12.6508C5.19729 12.4954 5.1519 12.3436 5.06683 12.2143C4.98176 12.0851 4.86082 11.9841 4.71921 11.9243C4.60281 11.8756 4.50335 11.793 4.43349 11.6869C4.36363 11.5809 4.32653 11.4562 4.32691 11.3287V8.75858ZM5.76921 8.27199C5.64171 8.27199 5.51942 8.32326 5.42926 8.41451C5.3391 8.50576 5.28845 8.62953 5.28845 8.75858V11.1243C6.44998 11.789 6.44998 13.5135 5.28845 14.1781V16.5439C5.28845 16.673 5.3391 16.7967 5.42926 16.888C5.51942 16.9792 5.64171 17.0305 5.76921 17.0305H19.2308C19.3583 17.0305 19.4805 16.9792 19.5707 16.888C19.6609 16.7967 19.7115 16.673 19.7115 16.5439V14.1781C18.55 13.5135 18.55 11.789 19.7115 11.1243V8.75858C19.7115 8.62953 19.6609 8.50576 19.5707 8.41451C19.4805 8.32326 19.3583 8.27199 19.2308 8.27199H5.76921Z" fill="black"/>
<path fill-rule="evenodd" clip-rule="evenodd" d="M14.9038 15.8149C15.095 15.8149 15.2785 15.8918 15.4137 16.0287C15.5489 16.1655 15.6249 16.3512 15.6249 16.5448V17.0313C15.6249 17.2249 15.5489 17.4106 15.4137 17.5474C15.2785 17.6843 15.095 17.7612 14.9038 17.7612C14.7125 17.7612 14.5291 17.6843 14.3938 17.5474C14.2586 17.4106 14.1826 17.2249 14.1826 17.0313V16.5448C14.1826 16.3512 14.2586 16.1655 14.3938 16.0287C14.5291 15.8918 14.7125 15.8149 14.9038 15.8149ZM14.9038 7.54297C15.095 7.54297 15.2785 7.61987 15.4137 7.75674C15.5489 7.89362 15.6249 8.07927 15.6249 8.27284V8.75943C15.6249 8.953 15.5489 9.13865 15.4137 9.27553C15.2785 9.4124 15.095 9.4893 14.9038 9.4893C14.7125 9.4893 14.5291 9.4124 14.3938 9.27553C14.2586 9.13865 14.1826 8.953 14.1826 8.75943V8.27284C14.1826 8.07927 14.2586 7.89362 14.3938 7.75674C14.5291 7.61987 14.7125 7.54297 14.9038 7.54297ZM14.9038 10.2192C15.095 10.2192 15.2785 10.2961 15.4137 10.433C15.5489 10.5698 15.6249 10.7555 15.6249 10.9491V11.4356C15.6249 11.6292 15.5489 11.8149 15.4137 11.9517C15.2785 12.0886 15.095 12.1655 14.9038 12.1655C14.7125 12.1655 14.5291 12.0886 14.3938 11.9517C14.2586 11.8149 14.1826 11.6292 14.1826 11.4356V10.9491C14.1826 10.7555 14.2586 10.5698 14.3938 10.433C14.5291 10.2961 14.7125 10.2192 14.9038 10.2192ZM14.9038 13.1387C15.095 13.1387 15.2785 13.2156 15.4137 13.3525C15.5489 13.4893 15.6249 13.675 15.6249 13.8685V14.3551C15.6249 14.5487 15.5489 14.7344 15.4137 14.8712C15.2785 15.0081 15.095 15.085 14.9038 15.085C14.7125 15.085 14.5291 15.0081 14.3938 14.8712C14.2586 14.7344 14.1826 14.5487 14.1826 14.3551V13.8685C14.1826 13.675 14.2586 13.4893 14.3938 13.3525C14.5291 13.2156 14.7125 13.1387 14.9038 13.1387Z" fill="black"/>
</mask>
<g mask="url(#mask0_191_246)">
<path d="M12.5 25.3023C19.4036 25.3023 25 19.6382 25 12.6512C25 5.66412 19.4036 0 12.5 0C5.59644 0 0 5.66412 0 12.6512C0 19.6382 5.59644 25.3023 12.5 25.3023Z" fill="#1E2631"/>
</g>
</svg>
